<svg xmlns="http://www.w3.org/2000/svg" viewBox="0 0 64 64" role="img" aria-label="Ohana Clouds Logo">
  <defs>
    <linearGradient id="lg" x1="0" y1="0" x2="1" y2="1">
      <stop offset="0" stop-color="#2E8B8B"/><stop offset="1" stop-color="#0E4C5A"/>
    </linearGradient>
  </defs>
  <circle cx="32" cy="32" r="32" fill="#FBF5EC"/>
  <path d="M20 40a9 9 0 0 1 .7-17.9A12 12 0 0 1 43 22a8.5 8.5 0 0 1 1 16.9c-.3 .1-.6 .1-1 .1H20z" fill="url(#lg)"/>
  <path d="M14 46c3-2.4 6.2-2.4 9.2 0s6.2 2.4 9.2 0 6.2-2.4 9.2 0 6.2 2.4 9.2 0" fill="none" stroke="#EC6A52" stroke-width="2.6" stroke-linecap="round"/>
  <g transform="translate(41.5 15.5)">
    <g fill="#EC6A52">
      <ellipse cx="0" cy="-6" rx="3.1" ry="5.4"/>
      <ellipse cx="5.7" cy="-1.8" rx="3.1" ry="5.4" transform="rotate(72 5.7 -1.8)"/>
      <ellipse cx="3.5" cy="5" rx="3.1" ry="5.4" transform="rotate(144 3.5 5)"/>
      <ellipse cx="-3.5" cy="5" rx="3.1" ry="5.4" transform="rotate(216 -3.5 5)"/>
      <ellipse cx="-5.7" cy="-1.8" rx="3.1" ry="5.4" transform="rotate(288 -5.7 -1.8)"/>
    </g>
    <circle cx="0" cy="0" r="2.4" fill="#F2A93C"/>
  </g>
</svg>
